<svg id="video-play-button" xmlns="http://www.w3.org/2000/svg" width="25.606" height="25.606" viewBox="0 0 25.606 25.606">
  <g id="Group_22" data-name="Group 22" transform="translate(0 0)">
    <g id="Group_21" data-name="Group 21">
      <g id="Group_20" data-name="Group 20">
        <path id="Path_3" data-name="Path 3" d="M20.8,0H4.8A4.8,4.8,0,0,0,0,4.8v16a4.8,4.8,0,0,0,4.8,4.8h16a4.8,4.8,0,0,0,4.8-4.8V4.8A4.8,4.8,0,0,0,20.8,0Zm-.136,15.669a2.952,2.952,0,0,1-2.028,2.623,86.113,86.113,0,0,1-11.675,0c-1.171-.147-1.941-1.559-2.028-2.623a30.258,30.258,0,0,1,0-5.749c.086-1.064.875-2.468,2.028-2.6a81.675,81.675,0,0,1,11.675,0c1.3.048,1.941,1.391,2.028,2.457A32.307,32.307,0,0,1,20.669,15.669Z" transform="translate(0 0)" fill="#010002"/>
        <path id="Path_4" data-name="Path 4" d="M222.477,197.1l4.8-3.2-4.8-3.2Z" transform="translate(-211.274 -181.093)" fill="#010002"/>
      </g>
    </g>
  </g>
</svg>
